<svg xmlns="http://www.w3.org/2000/svg" width="420.473" height="27.837" viewBox="0 0 420.473 27.837">
  <path id="パス_9" data-name="パス 9" d="M2.909,0h24c6.727,0,9.909-2.636,9.909-6.927v-.309c0-3.782-2.4-6.018-7.236-6.436v-.073c4.6-.455,6.564-2.909,6.564-6v-.145c0-4.127-3.164-6.655-9.764-6.655H2.909Zm9.655-5.855v-5.109H23.891c2.2,0,3.218.691,3.218,2.436v.236c0,1.745-1,2.436-3.218,2.436Zm0-10.2v-4.618H23.6c2.036,0,3,.618,3,2.218v.091c0,1.618-.891,2.309-3,2.309ZM41.636,0H66.146V-6.746H51.291v-19.8H41.636ZM87.164.655c10.636,0,17.455-3.473,17.455-13.618V-26.546H94.946v13.582c0,4.836-2.182,7.2-7.782,7.2s-7.8-2.364-7.8-7.2V-26.546H69.709v13.582C69.709-2.818,76.527.655,87.164.655Zm23-.655h27.546V-6.091H119.818v-4.364h17.891v-5.727H119.818v-4.273h17.891v-6.091H110.164ZM152.8,0h8.346l-.091-20.455h.164L170.018,0h11.236l8.818-20.455h.145L190.146,0h8.327V-26.546H183.819L175.691-6.709h-.109l-8.109-19.837H152.8Zm69.237.636c11.491,0,18.764-4.655,18.764-13.691v-.436c0-9.036-7.273-13.691-18.764-13.691s-18.746,4.655-18.746,13.691v.436C203.291-4.018,210.546.636,222.037.636Zm-8.782-13.691v-.436c0-5,3.145-7.491,8.782-7.491,5.655,0,8.782,2.491,8.782,7.491v.436c0,5-3.127,7.491-8.782,7.491C216.4-5.564,213.255-8.055,213.255-13.055ZM245.618,0h8.455V-20.837h.036L265.709,0h14.946V-26.546H272.2V-5.709h-.036l-11.6-20.837H245.618Zm57.509.618c11.236,0,16.891-2.982,16.891-8.146v-.164c0-4.655-3.109-6.946-10.946-7.891l-7.255-.873c-3.855-.473-5.764-.927-5.764-2.473v-.145c0-1.418,2.018-2.273,6.764-2.273,4.945,0,7.127,1.2,7.127,3.818v.218h10.018v-.236c0-6.109-5.036-9.618-17.109-9.618-11.018,0-16.8,2.927-16.8,8.018V-19c0,4.491,3.091,7.055,10.709,8l7.273.909c4.164.527,5.982.891,5.982,2.436v.109c0,1.382-1.655,2.4-6.782,2.4-5.527,0-7.4-1.455-7.4-3.836V-9.2h-10v.236C285.836-2.836,291.073.618,303.127.618ZM332.618,0h9.655V-19.709H352.2v-6.836H322.673v6.836h9.946Zm23.418,0h27.546V-6.091H365.691v-4.364h17.891v-5.727H365.691v-4.273h17.891v-6.091H356.036Zm33.091,0h9.655V-8.8h10.691c2.582.018,3.546.818,3.546,3.018v.873a14.336,14.336,0,0,0,.8,4.909h9.564a20.606,20.606,0,0,1-.691-5.327V-5.8c0-4.073-2.491-5.855-7.109-6.236v-.073c4.945-.582,7-3.327,7-6.964v-.182c0-4.655-3.018-7.291-9.4-7.291H389.127Zm9.655-14.618v-5.727h10.436c2.691,0,3.673.782,3.673,2.727v.127c0,2-.891,2.873-3.673,2.873Z" transform="translate(-2.909 27.182)" fill="#222"/>
</svg>
