<svg xmlns="http://www.w3.org/2000/svg" width="50.579" height="35.559" viewBox="0 0 50.579 35.559">
  <path id="youtube-brands-solid-full" d="M96.514,133.565a6.332,6.332,0,0,0-4.473-4.5C88.106,128,72.29,128,72.29,128s-15.816,0-19.761,1.065a6.348,6.348,0,0,0-4.473,4.5C47,137.538,47,145.817,47,145.817s0,8.279,1.056,12.251a6.266,6.266,0,0,0,4.473,4.426c3.945,1.065,19.761,1.065,19.761,1.065s15.816,0,19.761-1.065a6.266,6.266,0,0,0,4.473-4.426c1.056-3.973,1.056-12.251,1.056-12.251s0-8.279-1.056-12.251Zm-29.4,19.771V138.3l13.214,7.519Z" transform="translate(-47 -128)"/>
</svg>
